<svg width="1000" height="1000" viewBox="0 0 1000 1000" fill="none" xmlns="http://www.w3.org/2000/svg">
<path d="M996.387 981.441C1002.22 992.002 991.154 1003.87 980.207 998.786L291.02 678.701C283.325 675.127 281.365 665.084 287.152 658.881L608.855 314.008C614.641 307.805 624.8 309.059 628.903 316.484L996.387 981.441Z" fill="#404756"/>
<path d="M701.848 357.314C701.848 545.264 549.435 697.627 361.424 697.627C173.413 697.627 21 545.264 21 357.314C21 169.364 173.413 17 361.424 17C549.435 17 701.848 169.364 701.848 357.314Z" fill="#404756"/>
<path d="M80.1897 290.388C79.2275 290.388 78.2652 289.426 79.2275 288.464L85.9635 280.77C86.9257 279.808 87.888 278.847 88.8503 278.847H195.664C196.626 278.847 197.589 279.808 196.626 280.77L191.815 288.464C190.853 289.426 189.89 290.388 188.928 290.388H80.1897ZM34.9623 318.278C34 318.278 34 317.317 34 316.355L40.736 308.661C40.736 307.699 42.6606 306.737 43.6229 306.737H180.268C181.23 306.737 182.192 307.699 182.192 308.661L180.268 315.393C180.268 316.355 178.343 317.317 177.381 317.317L34.9623 318.278ZM108.096 345.207C107.134 345.207 106.171 344.246 107.134 343.284L110.983 336.552C111.945 335.59 112.907 334.628 113.87 334.628H173.532C174.494 334.628 175.456 335.59 175.456 336.552L174.494 343.284C174.494 344.246 173.532 345.207 172.569 345.207H108.096ZM418.915 284.617L368.876 298.082C364.064 299.043 364.064 300.005 360.215 295.196C355.404 290.388 352.517 286.541 345.781 283.655C326.535 274.038 308.252 276.923 291.893 288.464C271.685 301.929 261.1 321.164 261.1 345.207C261.1 369.251 277.458 388.486 301.516 392.333C321.724 395.218 339.045 387.524 352.517 372.136C355.404 369.251 357.328 365.404 360.215 360.595H302.478C295.742 360.595 294.78 356.748 296.704 351.94C300.553 342.322 308.252 326.934 312.101 319.24C313.063 317.317 314.988 314.431 319.799 314.431H428.537C427.575 322.125 427.575 330.781 426.613 338.475C423.726 359.634 415.065 379.83 401.593 397.142C380.423 425.994 351.554 443.306 315.95 448.115C286.119 451.962 259.175 446.191 235.118 427.918C212.985 411.568 200.476 388.486 196.626 361.557C192.777 328.858 202.4 300.005 221.646 274.038C242.816 246.147 270.722 228.835 305.365 222.103C333.271 217.294 360.215 220.18 385.234 236.53C401.593 247.109 412.178 261.535 419.877 278.847C423.726 282.694 422.764 283.655 418.915 284.617Z" fill="#221F1F"/>
<path d="M518.03 451C491.086 450.038 466.067 442.344 444.896 425.033C427.575 409.645 416.028 390.41 412.179 367.328C406.405 333.666 416.028 303.852 436.236 276.923C458.368 248.071 484.35 233.644 519.955 226.912C550.748 221.141 579.616 224.988 605.598 242.3C629.655 258.65 644.089 280.77 647.939 308.661C652.75 349.054 641.203 381.754 613.296 410.606C593.088 430.803 569.031 443.306 541.125 449.076C534.389 449.076 525.728 450.038 518.03 451ZM589.239 329.819C589.239 325.972 589.239 323.087 588.277 320.202C582.503 290.388 555.559 274.038 526.691 280.77C498.784 287.502 480.501 304.814 473.765 332.705C467.991 355.787 479.539 379.83 501.671 389.448C518.03 396.18 534.389 396.18 550.748 387.524C574.805 374.06 588.277 354.825 589.239 329.819Z" fill="#221F1F"/>
</svg>
