<svg width="1000" height="1000" viewBox="0 0 1000 1000" fill="none" xmlns="http://www.w3.org/2000/svg">
<path d="M996.387 981.441C1002.22 992.002 991.154 1003.87 980.207 998.786L291.02 678.701C283.325 675.127 281.365 665.084 287.152 658.881L608.855 314.008C614.641 307.805 624.8 309.059 628.903 316.484L996.387 981.441Z" fill="#404756"/>
<path d="M701.848 357.314C701.848 545.264 549.435 697.627 361.424 697.627C173.413 697.627 21 545.264 21 357.314C21 169.364 173.413 17 361.424 17C549.435 17 701.848 169.364 701.848 357.314Z" fill="#404756"/>
<path d="M256.807 450.771C256.807 450.771 237.532 461.971 270.524 465.761C310.493 470.318 330.921 469.664 374.967 461.334C374.967 461.334 386.547 468.59 402.72 474.874C303.98 517.159 179.251 472.424 256.807 450.771Z" fill="#221F1F"/>
<path d="M244.741 395.591C244.741 395.591 223.122 411.581 256.139 414.994C298.835 419.395 332.554 419.755 390.899 408.529C390.899 408.529 398.969 416.704 411.659 421.174C292.276 456.057 159.305 423.925 244.741 395.591Z" fill="#221F1F"/>
<path d="M346.457 301.988C370.787 329.977 340.065 355.164 340.065 355.164C340.065 355.164 401.842 323.297 373.47 283.393C346.972 246.18 326.652 227.69 436.658 163.94C436.658 163.94 263.985 207.032 346.457 301.988Z" fill="#221F1F"/>
<path d="M477.049 491.585C477.049 491.585 491.313 503.329 461.34 512.414C404.346 529.666 224.124 534.876 174.06 513.102C156.063 505.278 189.812 494.422 200.428 492.144C211.5 489.745 217.827 490.192 217.827 490.192C197.813 476.103 88.4616 517.855 162.282 529.812C363.602 562.435 529.269 515.122 477.049 491.585Z" fill="#221F1F"/>
<path d="M266.076 338.418C266.076 338.418 174.403 360.175 233.612 368.076C258.612 371.42 308.448 370.664 354.87 366.777C392.808 363.579 430.902 356.78 430.902 356.78C430.902 356.78 417.525 362.505 407.847 369.108C314.755 393.572 134.92 382.191 186.692 357.167C230.476 336.019 266.076 338.418 266.076 338.418Z" fill="#221F1F"/>
<path d="M430.524 430.268C525.156 381.132 481.402 333.912 450.862 340.274C443.377 341.831 440.04 343.18 440.04 343.18C440.04 343.18 442.818 338.83 448.126 336.947C508.543 315.723 555.008 399.545 428.622 432.744C428.622 432.744 430.087 431.438 430.524 430.268Z" fill="#221F1F"/>
<path d="M373.47 61C373.47 61 425.879 113.386 323.763 193.94C241.877 258.558 305.09 295.402 323.729 337.497C275.931 294.405 240.853 256.47 264.386 221.164C298.927 169.338 394.616 144.211 373.47 61Z" fill="#221F1F"/>
<path d="M275.375 563.416C366.209 569.226 505.696 560.192 509 517.245C509 517.245 502.65 533.526 433.93 546.455C356.401 561.034 260.779 559.332 204.065 549.989C204.066 549.987 215.675 559.59 275.375 563.416Z" fill="#221F1F"/>
</svg>
