<svg width="1000" height="1000" viewBox="0 0 1000 1000" fill="none" xmlns="http://www.w3.org/2000/svg">
<path d="M996.387 981.441C1002.22 992.002 991.154 1003.87 980.207 998.786L291.02 678.701C283.325 675.127 281.365 665.084 287.152 658.881L608.855 314.008C614.641 307.805 624.8 309.059 628.903 316.484L996.387 981.441Z" fill="#404756"/>
<path d="M701.848 357.314C701.848 545.264 549.435 697.627 361.424 697.627C173.413 697.627 21 545.264 21 357.314C21 169.364 173.413 17 361.424 17C549.435 17 701.848 169.364 701.848 357.314Z" fill="#404756"/>
<path d="M354 579C347.199 579 340.851 577.185 334.957 574.008L274.652 538.155C265.584 533.163 270.118 531.347 272.839 530.44C285.081 526.355 287.348 525.447 300.043 518.186C301.404 517.278 303.217 517.732 304.578 518.64L350.826 546.324C352.64 547.232 354.907 547.232 356.267 546.324L537.18 441.488C538.994 440.58 539.901 438.765 539.901 436.496V227.277C539.901 225.008 538.994 223.193 537.18 222.285L356.267 117.903C354.453 116.995 352.186 116.995 350.826 117.903L169.913 222.285C168.099 223.193 167.193 225.462 167.193 227.277V436.496C167.193 438.311 168.099 440.58 169.913 441.488L219.335 470.079C246.087 483.695 262.863 467.81 262.863 451.926V245.431C262.863 242.708 265.13 239.985 268.304 239.985H291.429C294.149 239.985 296.87 242.254 296.87 245.431V451.926C296.87 487.779 277.373 508.655 243.366 508.655C232.938 508.655 224.776 508.655 201.652 497.31L154.043 470.079C142.255 463.272 135 450.565 135 436.949V227.731C135 214.116 142.255 201.409 154.043 194.601L334.957 89.7653C346.292 83.4116 361.708 83.4116 373.043 89.7653L553.957 194.601C565.745 201.409 573 214.116 573 227.731V436.949C573 450.565 565.745 463.272 553.957 470.079L373.043 574.915C367.149 577.638 360.348 579 354 579ZM409.77 435.134C330.422 435.134 314.099 398.827 314.099 367.966C314.099 365.243 316.366 362.52 319.54 362.52H343.118C345.839 362.52 348.106 364.336 348.106 367.059C351.733 391.112 362.161 402.912 410.224 402.912C448.311 402.912 464.634 394.289 464.634 373.866C464.634 362.067 460.099 353.444 400.702 347.544C351.28 342.552 320.447 331.66 320.447 292.176C320.447 255.415 351.28 233.631 402.969 233.631C461.006 233.631 489.571 253.6 493.199 297.168C493.199 298.53 492.745 299.891 491.839 301.253C490.932 302.16 489.571 303.068 488.211 303.068H464.634C462.366 303.068 460.099 301.253 459.646 298.983C454.205 274.023 440.149 265.853 402.969 265.853C361.255 265.853 356.267 280.376 356.267 291.268C356.267 304.429 362.161 308.514 418.385 315.775C474.155 323.037 500.453 333.475 500.453 372.505C500 412.442 467.354 435.134 409.77 435.134Z" fill="#221F1F"/>
</svg>
