<svg width="1000" height="1000" viewBox="0 0 1000 1000" fill="none" xmlns="http://www.w3.org/2000/svg">
<path d="M996.387 981.441C1002.22 992.002 991.154 1003.87 980.207 998.786L291.02 678.701C283.325 675.127 281.365 665.084 287.152 658.881L608.855 314.008C614.641 307.805 624.8 309.059 628.903 316.484L996.387 981.441Z" fill="#404756"/>
<path d="M701.848 357.314C701.848 545.264 549.435 697.627 361.424 697.627C173.413 697.627 21 545.264 21 357.314C21 169.364 173.413 17 361.424 17C549.435 17 701.848 169.364 701.848 357.314Z" fill="#404756"/>
<path d="M351.219 92C225.811 92 233.643 146.448 233.643 146.448L233.782 202.855H353.456V219.791H186.248C186.248 219.791 106 210.68 106 337.365C106 464.05 176.043 459.557 176.043 459.557H217.845V400.771C217.845 400.771 215.591 330.646 286.769 330.646C357.946 330.646 405.464 330.646 405.464 330.646C405.464 330.646 472.151 331.726 472.151 266.121C472.151 200.516 472.151 157.645 472.151 157.645C472.151 157.645 482.276 92 351.219 92ZM285.231 129.931C297.138 129.931 306.761 139.566 306.761 151.487C306.761 163.407 297.138 173.042 285.231 173.042C273.324 173.042 263.701 163.407 263.701 151.487C263.701 139.566 273.324 129.931 285.231 129.931Z" fill="#221F1F"/>
<path d="M354.781 584C480.189 584 472.357 529.552 472.357 529.552L472.218 473.145H352.544V456.209H519.752C519.752 456.209 600 465.32 600 338.635C600 211.95 529.957 216.443 529.957 216.443H488.155V275.229C488.155 275.229 490.409 345.354 419.231 345.354C348.054 345.354 300.536 345.354 300.536 345.354C300.536 345.354 233.849 344.274 233.849 409.879C233.849 475.484 233.849 518.355 233.849 518.355C233.849 518.355 223.724 584 354.781 584ZM420.769 546.068C408.862 546.068 399.239 536.434 399.239 524.513C399.239 512.593 408.862 502.958 420.769 502.958C432.676 502.958 442.299 512.593 442.299 524.513C442.299 536.434 432.676 546.068 420.769 546.068Z" fill="#221F1F"/>
</svg>
